<mxfile host="app.diagrams.net" modified="2020-03-21T03:35:45.353Z" agent="Mozilla/5.0 (Macintosh; Intel Mac OS X 10_15_3) AppleWebKit/537.36 (KHTML, like Gecko) Chrome/80.0.3987.132 Safari/537.36" etag="pEZi6238ArX0YL5TilKI" version="12.8.8" type="github">
  <diagram id="ZjjencsQRR18xrkjBfRa" name="Page-1">
    <mxGraphModel dx="706" dy="620" grid="1" gridSize="10" guides="1" tooltips="1" connect="1" arrows="1" fold="1" page="1" pageScale="1" pageWidth="827" pageHeight="1169" math="0" shadow="0">
      <root>
        <mxCell id="0" />
        <mxCell id="1" parent="0" />
        <mxCell id="Tgs7vuUAzSE7YQnF-wE0-3" value="" style="edgeStyle=orthogonalEdgeStyle;rounded=0;orthogonalLoop=1;jettySize=auto;html=1;endArrow=open;endFill=0;" edge="1" parent="1" source="Tgs7vuUAzSE7YQnF-wE0-1" target="Tgs7vuUAzSE7YQnF-wE0-2">
          <mxGeometry relative="1" as="geometry" />
        </mxCell>
        <mxCell id="Tgs7vuUAzSE7YQnF-wE0-1" value="telegram&amp;nbsp; bot" style="rounded=1;whiteSpace=wrap;html=1;fillColor=#dae8fc;strokeColor=#6c8ebf;shadow=1;comic=0;" vertex="1" parent="1">
          <mxGeometry x="310" y="230" width="120" height="60" as="geometry" />
        </mxCell>
        <mxCell id="Tgs7vuUAzSE7YQnF-wE0-11" style="edgeStyle=orthogonalEdgeStyle;rounded=0;orthogonalLoop=1;jettySize=auto;html=1;exitX=1;exitY=0.5;exitDx=0;exitDy=0;endArrow=open;endFill=0;entryX=1;entryY=0.5;entryDx=0;entryDy=0;" edge="1" parent="1" source="Tgs7vuUAzSE7YQnF-wE0-2" target="Tgs7vuUAzSE7YQnF-wE0-12">
          <mxGeometry relative="1" as="geometry">
            <mxPoint x="620" y="160" as="targetPoint" />
          </mxGeometry>
        </mxCell>
        <mxCell id="Tgs7vuUAzSE7YQnF-wE0-2" value="golang playground" style="rounded=1;whiteSpace=wrap;html=1;fillColor=#dae8fc;strokeColor=#6c8ebf;shadow=1;comic=0;" vertex="1" parent="1">
          <mxGeometry x="510" y="230" width="120" height="60" as="geometry" />
        </mxCell>
        <mxCell id="Tgs7vuUAzSE7YQnF-wE0-10" style="edgeStyle=orthogonalEdgeStyle;rounded=0;orthogonalLoop=1;jettySize=auto;html=1;exitX=1;exitY=0.5;exitDx=0;exitDy=0;entryX=0;entryY=0.5;entryDx=0;entryDy=0;endArrow=open;endFill=0;" edge="1" parent="1" source="Tgs7vuUAzSE7YQnF-wE0-4" target="Tgs7vuUAzSE7YQnF-wE0-1">
          <mxGeometry relative="1" as="geometry" />
        </mxCell>
        <mxCell id="Tgs7vuUAzSE7YQnF-wE0-4" value="Message" style="ellipse;whiteSpace=wrap;html=1;shadow=1;comic=0;" vertex="1" parent="1">
          <mxGeometry x="130" y="225" width="80" height="70" as="geometry" />
        </mxCell>
        <mxCell id="Tgs7vuUAzSE7YQnF-wE0-9" style="edgeStyle=orthogonalEdgeStyle;rounded=0;orthogonalLoop=1;jettySize=auto;html=1;exitX=0;exitY=0.25;exitDx=0;exitDy=0;entryX=0.5;entryY=0;entryDx=0;entryDy=0;endArrow=open;endFill=0;" edge="1" parent="1" source="Tgs7vuUAzSE7YQnF-wE0-6" target="Tgs7vuUAzSE7YQnF-wE0-4">
          <mxGeometry relative="1" as="geometry" />
        </mxCell>
        <mxCell id="Tgs7vuUAzSE7YQnF-wE0-6" value="&lt;h1&gt;/go fmt.Println(&quot;hello&quot;)&lt;/h1&gt;" style="text;html=1;strokeColor=none;fillColor=none;spacing=5;spacingTop=-20;whiteSpace=wrap;overflow=hidden;rounded=0;shadow=1;comic=0;" vertex="1" parent="1">
          <mxGeometry x="200" y="105" width="250" height="65" as="geometry" />
        </mxCell>
        <mxCell id="Tgs7vuUAzSE7YQnF-wE0-8" style="edgeStyle=orthogonalEdgeStyle;rounded=0;orthogonalLoop=1;jettySize=auto;html=1;exitX=0;exitY=0.5;exitDx=0;exitDy=0;entryX=0.5;entryY=0;entryDx=0;entryDy=0;endArrow=open;endFill=0;" edge="1" parent="1" source="Tgs7vuUAzSE7YQnF-wE0-7" target="Tgs7vuUAzSE7YQnF-wE0-6">
          <mxGeometry relative="1" as="geometry" />
        </mxCell>
        <mxCell id="Tgs7vuUAzSE7YQnF-wE0-7" value="User" style="shape=process;whiteSpace=wrap;html=1;backgroundOutline=1;shadow=1;comic=0;" vertex="1" parent="1">
          <mxGeometry x="370" y="20" width="120" height="60" as="geometry" />
        </mxCell>
        <mxCell id="Tgs7vuUAzSE7YQnF-wE0-13" style="edgeStyle=orthogonalEdgeStyle;rounded=0;orthogonalLoop=1;jettySize=auto;html=1;exitX=0.5;exitY=0;exitDx=0;exitDy=0;entryX=1;entryY=0.5;entryDx=0;entryDy=0;endArrow=open;endFill=0;" edge="1" parent="1" source="Tgs7vuUAzSE7YQnF-wE0-12" target="Tgs7vuUAzSE7YQnF-wE0-7">
          <mxGeometry relative="1" as="geometry" />
        </mxCell>
        <mxCell id="Tgs7vuUAzSE7YQnF-wE0-12" value="hello" style="text;html=1;strokeColor=none;fillColor=none;align=center;verticalAlign=middle;whiteSpace=wrap;rounded=0;shadow=1;comic=0;" vertex="1" parent="1">
          <mxGeometry x="580" y="105" width="40" height="20" as="geometry" />
        </mxCell>
        <mxCell id="Tgs7vuUAzSE7YQnF-wE0-14" value="Zeit Serverless" style="shape=trapezoid;perimeter=trapezoidPerimeter;whiteSpace=wrap;html=1;shadow=1;comic=0;" vertex="1" parent="1">
          <mxGeometry x="510" y="290" width="120" height="60" as="geometry" />
        </mxCell>
      </root>
    </mxGraphModel>
  </diagram>
</mxfile>
